<svg width="16" height="19" viewBox="0 0 16 19" fill="none" xmlns="http://www.w3.org/2000/svg">
<path d="M1.8 19C1.32261 19 0.864774 18.8083 0.527209 18.4671C0.189644 18.126 0 17.6633 0 17.1808V1.81916C0 1.33669 0.189644 0.87402 0.527209 0.532864C0.864774 0.191707 1.32261 8.85291e-06 1.8 8.85291e-06H14.2C14.4366 -0.000738518 14.671 0.0458416 14.8897 0.136998C15.1084 0.228154 15.3071 0.362113 15.4744 0.531186C15.6417 0.700258 15.7743 0.901027 15.8645 1.12207C15.9547 1.34312 16.0007 1.58005 16 1.81916V17.1808C16.0006 17.4199 15.9545 17.6567 15.8643 17.8777C15.774 18.0987 15.6415 18.2996 15.4742 18.4686C15.3069 18.6377 15.1082 18.7716 14.8896 18.8628C14.6709 18.954 14.4365 19.0006 14.2 19H1.8ZM1.3764 1.38944C1.32045 1.4458 1.27607 1.51279 1.2458 1.58653C1.21553 1.66028 1.19996 1.73932 1.2 1.81916V17.1808C1.19963 17.2606 1.21489 17.3396 1.24492 17.4134C1.27494 17.4871 1.31912 17.5541 1.37491 17.6105C1.4307 17.6668 1.49699 17.7115 1.56995 17.7418C1.64291 17.7722 1.7211 17.7876 1.8 17.7872H14.2C14.3591 17.7872 14.5117 17.7233 14.6243 17.6096C14.7368 17.4959 14.8 17.3417 14.8 17.1808V1.81916C14.8 1.65833 14.7368 1.50414 14.6243 1.39042C14.5117 1.27671 14.3591 1.21277 14.2 1.21277H1.8C1.64118 1.21281 1.48884 1.27608 1.3764 1.38944ZM5.9 13.9468C5.74087 13.9468 5.58826 13.8829 5.47574 13.7692C5.36321 13.6554 5.3 13.5012 5.3 13.3404C5.3 13.1796 5.36321 13.0254 5.47574 12.9117C5.58826 12.798 5.74087 12.734 5.9 12.734H10.1C10.2591 12.734 10.4117 12.798 10.5243 12.9117C10.6368 13.0254 10.7 13.1796 10.7 13.3404C10.7 13.5012 10.6368 13.6554 10.5243 13.7692C10.4117 13.8829 10.2591 13.9468 10.1 13.9468H5.9ZM5.9 10.3085C5.74106 10.3079 5.58882 10.2437 5.47643 10.1302C5.36405 10.0166 5.30063 9.86275 5.3 9.70213C5.30063 9.5415 5.36405 9.38767 5.47643 9.27409C5.58882 9.16051 5.74106 9.09639 5.9 9.09575H10.1C10.2589 9.09639 10.4112 9.16051 10.5236 9.27409C10.6359 9.38767 10.6994 9.5415 10.7 9.70213C10.6994 9.86275 10.6359 10.0166 10.5236 10.1302C10.4112 10.2437 10.2589 10.3079 10.1 10.3085H5.9ZM5.9 6.67022C5.74087 6.67022 5.58826 6.60628 5.47574 6.49256C5.36321 6.37885 5.3 6.22466 5.3 6.06383C5.3 5.90301 5.36321 5.74882 5.47574 5.6351C5.58826 5.52138 5.74087 5.45745 5.9 5.45745H10.1C10.2591 5.45745 10.4117 5.52138 10.5243 5.6351C10.6368 5.74882 10.7 5.90301 10.7 6.06383C10.7 6.22466 10.6368 6.37885 10.5243 6.49256C10.4117 6.60628 10.2591 6.67022 10.1 6.67022H5.9Z" fill="#E11425"/>
</svg>
