<svg width="17" height="19" viewBox="0 0 17 19" fill="none" xmlns="http://www.w3.org/2000/svg">
<path d="M2.18935 18.9999C1.61358 19.0041 1.05966 18.78 0.64919 18.3767C0.238719 17.9735 0.0052386 17.4241 0 16.8491V7.26653C0.00135541 6.94956 0.0744782 6.63706 0.213895 6.35229C0.353311 6.06753 0.555411 5.81794 0.805071 5.62221L7.11531 0.498271C7.50461 0.176222 7.99427 0 8.49979 0C9.00531 0 9.49498 0.176222 9.88428 0.498271L16.1945 5.59152C16.4444 5.78733 16.6467 6.03701 16.7862 6.322C16.9257 6.60699 16.9988 6.91981 17 7.23702V16.8172C17.0007 17.1043 16.9445 17.3887 16.8347 17.654C16.7249 17.9194 16.5637 18.1604 16.3602 18.3633C16.1568 18.5662 15.9152 18.7269 15.6493 18.8361C15.3834 18.9454 15.0985 19.0011 14.811 18.9999H2.18935ZM7.92038 1.47932L1.61014 6.60286C1.51136 6.68366 1.43127 6.78487 1.37538 6.89951C1.31948 7.01416 1.2891 7.13954 1.28633 7.26703V16.8494C1.28707 16.9668 1.311 17.0828 1.35673 17.1909C1.40247 17.299 1.46912 17.3971 1.55286 17.4794C1.6366 17.5617 1.73579 17.6267 1.84473 17.6706C1.95368 17.7146 2.07024 17.7367 2.18774 17.7356H14.8102C14.9278 17.737 15.0445 17.7152 15.1536 17.6713C15.2627 17.6275 15.362 17.5624 15.4458 17.4801C15.5296 17.3977 15.5963 17.2995 15.6419 17.1913C15.6875 17.0831 15.7112 16.9669 15.7116 16.8494V7.26703C15.7089 7.13954 15.6785 7.01416 15.6226 6.89951C15.5667 6.78487 15.4866 6.68366 15.3878 6.60286L9.07759 1.47932C8.9096 1.35593 8.70651 1.28935 8.49797 1.28935C8.28944 1.28935 8.08635 1.35593 7.91836 1.47932H7.92038ZM4.63655 16.2165C4.55204 16.2186 4.46796 16.2038 4.38926 16.1729C4.31056 16.1421 4.23884 16.0959 4.17831 16.037C4.11779 15.978 4.06969 15.9076 4.03685 15.8298C4.004 15.752 3.98708 15.6685 3.98708 15.5841C3.98708 15.4997 4.004 15.416 4.03685 15.3383C4.06969 15.2605 4.11779 15.19 4.17831 15.1311C4.23884 15.0722 4.31056 15.0259 4.38926 14.9951C4.46796 14.9643 4.55204 14.9496 4.63655 14.9517H12.3634C12.448 14.9496 12.532 14.9643 12.6107 14.9951C12.6894 15.0259 12.7612 15.0722 12.8217 15.1311C12.8822 15.19 12.9303 15.2605 12.9631 15.3383C12.996 15.416 13.0129 15.4997 13.0129 15.5841C13.0129 15.6685 12.996 15.752 12.9631 15.8298C12.9303 15.9076 12.8822 15.978 12.8217 16.037C12.7612 16.0959 12.6894 16.1421 12.6107 16.1729C12.532 16.2038 12.448 16.2186 12.3634 16.2165H4.63655Z" fill="#E11425"/>
</svg>
