<svg width="17" height="17" viewBox="0 0 17 17" fill="none" xmlns="http://www.w3.org/2000/svg">
<path fill-rule="evenodd" clip-rule="evenodd" d="M1.33531 4.15878C1.33531 3.79004 1.63423 3.49112 2.00297 3.49112H14.0208C14.3895 3.49112 14.6884 3.79004 14.6884 4.15878C14.6884 4.52751 14.3895 4.82643 14.0208 4.82643H2.00297C1.63423 4.82643 1.33531 4.52751 1.33531 4.15878Z" fill="#97979D"/>
<path fill-rule="evenodd" clip-rule="evenodd" d="M1.33531 8.1647C1.33531 7.79596 1.63423 7.49704 2.00297 7.49704H14.0208C14.3895 7.49704 14.6884 7.79596 14.6884 8.1647C14.6884 8.53343 14.3895 8.83235 14.0208 8.83235H2.00297C1.63423 8.83235 1.33531 8.53343 1.33531 8.1647Z" fill="#97979D"/>
<path fill-rule="evenodd" clip-rule="evenodd" d="M1.33531 12.1706C1.33531 11.8019 1.63423 11.503 2.00297 11.503H14.0208C14.3895 11.503 14.6884 11.8019 14.6884 12.1706C14.6884 12.5394 14.3895 12.8383 14.0208 12.8383H2.00297C1.63423 12.8383 1.33531 12.5394 1.33531 12.1706Z" fill="#97979D"/>
</svg>
