<svg width="20" height="20" viewBox="0 0 20 20" fill="none" xmlns="http://www.w3.org/2000/svg">
<path fill-rule="evenodd" clip-rule="evenodd" d="M1.04166 1.66666C1.04166 1.32148 1.32149 1.04166 1.66666 1.04166H10C10.1658 1.04166 10.3247 1.1075 10.4419 1.22471L18.1836 8.96638C19.211 9.99379 19.211 11.6729 18.1836 12.7003L12.7003 18.1836C11.6729 19.211 9.9938 19.211 8.96639 18.1836L1.22472 10.4419C1.10751 10.3247 1.04166 10.1658 1.04166 9.99999V1.66666ZM2.29166 2.29166V9.74111L9.85027 17.2997C10.3895 17.839 11.2771 17.839 11.8164 17.2997L17.2997 11.8164C17.839 11.2771 17.839 10.3895 17.2997 9.85027L9.74111 2.29166H2.29166Z" fill="#97979D"/>
<path fill-rule="evenodd" clip-rule="evenodd" d="M5.20834 5.83334C5.20834 5.48817 5.48816 5.20834 5.83334 5.20834H5.84167C6.18685 5.20834 6.46667 5.48817 6.46667 5.83334C6.46667 6.17852 6.18685 6.45834 5.84167 6.45834H5.83334C5.48816 6.45834 5.20834 6.17852 5.20834 5.83334Z" fill="#97979D"/>
</svg>
