<svg width="70" height="70" viewBox="0 0 70 70" fill="none" xmlns="http://www.w3.org/2000/svg">
<path d="M67.1335 34.8765C67.1335 53.0506 52.5361 67.7531 34.5668 67.7531C16.5974 67.7531 2 53.0506 2 34.8765C2 16.7025 16.5974 2 34.5668 2C52.5361 2 67.1335 16.7025 67.1335 34.8765Z" fill="#E11425" stroke="white" stroke-width="4"/>
<path fill-rule="evenodd" clip-rule="evenodd" d="M43.7429 19.6857C42.5442 19.3969 41.2923 19.3591 40.0673 19.5824C38.2896 19.9062 36.6529 20.7642 35.3752 22.0419C34.0975 23.3196 33.2396 24.9563 32.9157 26.7339C32.5918 28.5116 32.8173 30.3457 33.5623 31.9919C33.753 32.4133 33.6627 32.9087 33.3357 33.2357L21.819 44.7523C21.3643 45.207 21.1089 45.8237 21.1089 46.4667C21.1089 47.1097 21.3643 47.7263 21.819 48.181C22.2737 48.6357 22.8903 48.8911 23.5333 48.8911C24.1763 48.8911 24.793 48.6357 25.2477 48.181L36.7643 36.6643C37.0913 36.3373 37.5867 36.247 38.0081 36.4377C39.6543 37.1827 41.4884 37.4082 43.2661 37.0843C45.0437 36.7604 46.6804 35.9025 47.9581 34.6248C49.2358 33.3471 50.0938 31.7104 50.4176 29.9327C50.6409 28.7077 50.6031 27.4558 50.3143 26.2571L45.2778 31.2935C44.7586 31.8025 44.0604 32.0875 43.3333 32.0875C42.6062 32.0875 41.9081 31.8025 41.3889 31.2935L41.381 31.2857L38.7065 28.6112C38.1975 28.0919 37.9125 27.3938 37.9125 26.6667C37.9125 25.9396 38.1975 25.2415 38.7065 24.7222L38.7143 24.7143L43.7429 19.6857ZM39.6689 17.3961C41.891 16.9913 44.1837 17.2732 46.2414 18.2044C46.5737 18.3548 46.8111 18.6587 46.8764 19.0175C46.9418 19.3763 46.8269 19.7444 46.569 20.0023L40.2907 26.2807C40.1906 26.3842 40.1347 26.5226 40.1347 26.6667C40.1347 26.8107 40.1906 26.9491 40.2907 27.0527L42.9474 29.7093C43.0509 29.8094 43.1893 29.8653 43.3333 29.8653C43.4774 29.8653 43.6158 29.8094 43.7193 29.7093L49.9977 23.431C50.2556 23.1731 50.6237 23.0582 50.9825 23.1236C51.3413 23.1889 51.6452 23.4263 51.7956 23.7586C52.7268 25.8163 53.0087 28.109 52.6039 30.3311C52.199 32.5531 51.1266 34.599 49.5295 36.1961C47.9324 37.7932 45.8865 38.8657 43.6644 39.2705C41.6986 39.6287 39.6776 39.4494 37.8128 38.7585L26.819 49.7523C25.9476 50.6238 24.7657 51.1133 23.5333 51.1133C22.301 51.1133 21.1191 50.6238 20.2477 49.7523C19.3762 48.8809 18.8867 47.699 18.8867 46.4667C18.8867 45.2343 19.3762 44.0524 20.2477 43.181L31.2415 32.1872C30.5506 30.3224 30.3713 28.3014 30.7295 26.3356C31.1343 24.1135 32.2068 22.0676 33.8039 20.4705C35.401 18.8734 37.4469 17.801 39.6689 17.3961Z" fill="white"/>
</svg>
